<svg xmlns="http://www.w3.org/2000/svg" viewBox="0 0 512 512">
  <g fill="#71C6DD">
    <path d="M96 128c0-17.7 14.3-32 32-32h112c36.5 0 69.6 14.7 93.6 38.4V400c-24-23.7-57.1-38.4-93.6-38.4H128c-17.7 0-32-14.3-32-32V128z"/>
    <path d="M416 128c0-17.7-14.3-32-32-32H272c-36.5 0-69.6 14.7-93.6 38.4V400c24-23.7 57.1-38.4 93.6-38.4h112c17.7 0 32-14.3 32-32V128z"/>
    <path d="M256 120v280" stroke="#71C6DD" stroke-width="16" stroke-linecap="round" fill="none"/>
    <circle cx="256" cy="88" r="20"/>
  </g>
</svg>