<?xml version="1.0" encoding="UTF-8"?>
<svg xmlns="http://www.w3.org/2000/svg" viewBox="0 0 800 800">
  <g fill="none" stroke="#71C6DD" stroke-width="22" stroke-linecap="round" stroke-linejoin="round">
    <!-- monitor frame -->
    <path d="M170 250 L170 560 Q170 590 200 590 L600 590 Q630 590 630 560 L630 250" />
    
    <!-- open book -->
    <path d="M300 200 Q225 160 225 250 L225 500 Q225 540 260 565 L390 650" />
    <path d="M500 200 Q575 160 575 250 L575 500 Q575 540 540 565 L410 650" />
    <path d="M400 210 L400 635" />
    
    <!-- page curves -->
    <path d="M260 560 Q330 575 390 650" />
    <path d="M540 560 Q470 575 410 650" />
    
    <!-- stand -->
    <path d="M370 650 L430 650" />
    <path d="M320 705 L480 705" />
  </g>

  <!-- digital pixels -->
  <rect x="650" y="235" width="34" height="34" rx="4" fill="#71C6DD"/>
  <rect x="690" y="270" width="58" height="58" rx="6" fill="#71C6DD"/>
  <rect x="625" y="310" width="58" height="58" rx="6" fill="#71C6DD"/>
</svg>